REM DIRINDEX 1\2\6,1\2\7,1\2\8,1\2\9,1\3\10,1\3\11,1\4\12,1\4\13,1\4\14,1\5\15,1\5\16,1\5\17
REM DIRNAME cjc020,folder01,folder02,folder03,folder04,folder05,folder06,folder07,folder08,folder09,folder10,folder11,folder12,folder13,folder14,folder15,folder16
TITLE ""
FILE "1900_2_sec18_1701_1718.mp3" MP3
  TRACK 01 AUDIO
    TITLE "0:"
    INDEX 01 00:00:00
  TRACK 02 AUDIO
    TITLE "12:cjc020_5557"
    INDEX 01 00:03:23
  TRACK 03 AUDIO
    TITLE "0:"
    INDEX 01 00:05:30
  TRACK 04 AUDIO
    TITLE "12:cjc020_5558"
    INDEX 01 00:05:71
  TRACK 05 AUDIO
    TITLE "0:"
    INDEX 01 00:07:21
  TRACK 06 AUDIO
    TITLE "13:cjc020_5559"
    INDEX 01 00:08:21
  TRACK 07 AUDIO
    TITLE "0:"
    INDEX 01 00:09:59
  TRACK 08 AUDIO
    TITLE "14:cjc020_5560"
    INDEX 01 00:09:61
  TRACK 09 AUDIO
    TITLE "0:"
    INDEX 01 00:12:32
  TRACK 10 AUDIO
    TITLE "13:cjc020_5561"
    INDEX 01 00:13:10
  TRACK 11 AUDIO
    TITLE "0:"
    INDEX 01 00:14:15
  TRACK 12 AUDIO
    TITLE "14:cjc020_5562"
    INDEX 01 00:14:17
  TRACK 13 AUDIO
    TITLE "0:"
    INDEX 01 00:15:46
  TRACK 14 AUDIO
    TITLE "13:cjc020_5563"
    INDEX 01 00:16:28
  TRACK 15 AUDIO
    TITLE "0:"
    INDEX 01 00:17:53
  TRACK 16 AUDIO
    TITLE "14:cjc020_5564"
    INDEX 01 00:17:57
  TRACK 17 AUDIO
    TITLE "0:"
    INDEX 01 00:20:16
  TRACK 18 AUDIO
    TITLE "13:cjc020_5565"
    INDEX 01 00:20:71
  TRACK 19 AUDIO
    TITLE "0:"
    INDEX 01 00:22:13
  TRACK 20 AUDIO
    TITLE "14:cjc020_5566"
    INDEX 01 00:22:19
  TRACK 21 AUDIO
    TITLE "0:"
    INDEX 01 00:23:36
  TRACK 22 AUDIO
    TITLE "13:cjc020_5567"
    INDEX 01 00:24:24
  TRACK 23 AUDIO
    TITLE "0:"
    INDEX 01 00:25:50
  TRACK 24 AUDIO
    TITLE "14:cjc020_5568"
    INDEX 01 00:25:54
  TRACK 25 AUDIO
    TITLE "0:"
    INDEX 01 00:28:23
  TRACK 26 AUDIO
    TITLE "13:cjc020_5569"
    INDEX 01 00:29:03
  TRACK 27 AUDIO
    TITLE "0:"
    INDEX 01 00:30:20
  TRACK 28 AUDIO
    TITLE "14:cjc020_5570"
    INDEX 01 00:30:22
  TRACK 29 AUDIO
    TITLE "0:"
    INDEX 01 00:33:21
  TRACK 30 AUDIO
    TITLE "13:cjc020_5571"
    INDEX 01 00:33:73
  TRACK 31 AUDIO
    TITLE "0:"
    INDEX 01 00:35:15
  TRACK 32 AUDIO
    TITLE "14:cjc020_5572"
    INDEX 01 00:35:17
  TRACK 33 AUDIO
    TITLE "0:"
    INDEX 01 00:38:06
  TRACK 34 AUDIO
    TITLE "13:cjc020_5573"
    INDEX 01 00:38:61
  TRACK 35 AUDIO
    TITLE "0:"
    INDEX 01 00:40:07
  TRACK 36 AUDIO
    TITLE "14:cjc020_5574"
    INDEX 01 00:40:09
  TRACK 37 AUDIO
    TITLE "0:"
    INDEX 01 00:41:34
  TRACK 38 AUDIO
    TITLE "13:cjc020_5575"
    INDEX 01 00:42:18
  TRACK 39 AUDIO
    TITLE "0:"
    INDEX 01 00:43:25
  TRACK 40 AUDIO
    TITLE "14:cjc020_5576"
    INDEX 01 00:43:27
  TRACK 41 AUDIO
    TITLE "0:"
    INDEX 01 00:45:49
  TRACK 42 AUDIO
    TITLE "13:cjc020_5577"
    INDEX 01 00:46:29
  TRACK 43 AUDIO
    TITLE "0:"
    INDEX 01 00:47:52
  TRACK 44 AUDIO
    TITLE "14:cjc020_5578"
    INDEX 01 00:47:54
  TRACK 45 AUDIO
    TITLE "0:"
    INDEX 01 00:48:61
  TRACK 46 AUDIO
    TITLE "13:cjc020_5579"
    INDEX 01 00:49:43
  TRACK 47 AUDIO
    TITLE "0:"
    INDEX 01 00:50:74
  TRACK 48 AUDIO
    TITLE "14:cjc020_5580"
    INDEX 01 00:51:03
  TRACK 49 AUDIO
    TITLE "0:"
    INDEX 01 00:52:57
  TRACK 50 AUDIO
    TITLE "13:cjc020_5581"
    INDEX 01 00:53:39
  TRACK 51 AUDIO
    TITLE "0:"
    INDEX 01 00:54:44
  TRACK 52 AUDIO
    TITLE "14:cjc020_5582"
    INDEX 01 00:54:46
  TRACK 53 AUDIO
    TITLE "0:"
    INDEX 01 00:56:53
  TRACK 54 AUDIO
    TITLE "13:cjc020_5583"
    INDEX 01 00:57:35
  TRACK 55 AUDIO
    TITLE "0:"
    INDEX 01 00:58:44
  TRACK 56 AUDIO
    TITLE "14:cjc020_5584"
    INDEX 01 00:58:46
  TRACK 57 AUDIO
    TITLE "0:"
    INDEX 01 00:59:71
  TRACK 58 AUDIO
    TITLE "13:cjc020_5585"
    INDEX 01 01:00:51
  TRACK 59 AUDIO
    TITLE "0:"
    INDEX 01 01:01:62
  TRACK 60 AUDIO
    TITLE "14:cjc020_5586"
    INDEX 01 01:01:66
  TRACK 61 AUDIO
    TITLE "0:"
    INDEX 01 01:04:52
  TRACK 62 AUDIO
    TITLE "13:cjc020_5587"
    INDEX 01 01:05:32
  TRACK 63 AUDIO
    TITLE "0:"
    INDEX 01 01:06:36
  TRACK 64 AUDIO
    TITLE "14:cjc020_5588"
    INDEX 01 01:06:43
  TRACK 65 AUDIO
    TITLE "0:"
    INDEX 01 01:08:70
  TRACK 66 AUDIO
    TITLE "13:cjc020_5589"
    INDEX 01 01:09:50
  TRACK 67 AUDIO
    TITLE "0:"
    INDEX 01 01:10:47
  TRACK 68 AUDIO
    TITLE "14:cjc020_5590"
    INDEX 01 01:10:51
  TRACK 69 AUDIO
    TITLE "0:"
    INDEX 01 01:11:47
  TRACK 70 AUDIO
    TITLE "13:cjc020_5591"
    INDEX 01 01:12:28
  TRACK 71 AUDIO
    TITLE "0:"
    INDEX 01 01:13:28
  TRACK 72 AUDIO
    TITLE "14:cjc020_5592"
    INDEX 01 01:13:32
  TRACK 73 AUDIO
    TITLE "0:"
    INDEX 01 01:15:39
  TRACK 74 AUDIO
    TITLE "13:cjc020_5593"
    INDEX 01 01:16:16
  TRACK 75 AUDIO
    TITLE "0:"
    INDEX 01 01:17:22
  TRACK 76 AUDIO
    TITLE "14:cjc020_5594"
    INDEX 01 01:17:26
  TRACK 77 AUDIO
    TITLE "0:"
    INDEX 01 01:20:36
